<?xml version="1.0" standalone="no"?>
<!DOCTYPE svg PUBLIC "-//W3C//DTD SVG 20010904//EN"
 "http://www.w3.org/TR/2001/REC-SVG-20010904/DTD/svg10.dtd">
<svg version="1.0" xmlns="http://www.w3.org/2000/svg"
 width="250.000000pt" height="149.000000pt" viewBox="0 0 250.000000 149.000000"
 preserveAspectRatio="xMidYMid meet">

<g transform="translate(0.000000,149.000000) scale(0.100000,-0.100000)"
fill="#000000" stroke="none">
<path d="M0 1115 l0 -375 370 0 370 0 0 -370 0 -370 375 0 375 0 0 375 0 375
-370 0 -370 0 0 370 0 370 -375 0 -375 0 0 -375z m615 260 c0 -36 -3 -40 -24
-40 -13 0 -26 6 -29 14 -3 9 1 11 17 6 12 -4 21 -2 21 4 0 6 -5 11 -11 11 -8
0 -7 6 2 16 12 15 11 16 -9 10 -17 -6 -21 -4 -16 9 4 9 15 15 28 13 17 -2 21
-10 21 -43z m65 35 c0 -5 -8 -10 -17 -11 -14 0 -12 -3 5 -10 33 -13 27 -54 -7
-54 -13 0 -26 6 -29 14 -3 9 1 11 17 6 12 -4 21 -2 21 4 0 6 -9 11 -20 11 -20
0 -28 28 -13 43 10 11 43 8 43 -3z m-331 -96 c49 -10 81 -49 81 -100 0 -33 -5
-47 -23 -61 l-24 -17 34 -32 c27 -26 33 -39 33 -73 0 -53 -21 -93 -57 -111
-17 -8 -78 -15 -150 -18 l-123 -4 0 211 0 211 99 0 c54 0 112 -3 130 -6z m311
-142 c0 -34 -3 -39 -32 -47 -45 -14 -58 -45 -58 -142 l0 -83 -35 0 -35 0 0
150 0 150 35 0 c26 0 35 -4 35 -16 0 -13 3 -14 14 -5 8 7 27 16 43 21 15 4 29
9 31 9 1 1 2 -16 2 -37z m690 -492 c0 -5 -7 -10 -16 -10 -13 0 -11 -4 7 -18
28 -24 20 -52 -16 -52 -14 0 -25 5 -25 10 0 6 7 10 16 8 10 -2 19 3 22 11 3
10 -1 12 -17 8 -17 -4 -21 -1 -21 17 0 13 3 26 7 29 10 11 43 8 43 -3z m68
-10 c3 -9 -1 -11 -12 -7 -9 4 -16 2 -16 -3 0 -6 6 -10 14 -10 17 0 27 -23 16
-39 -13 -23 -45 -8 -48 22 -5 45 33 76 46 37z m-362 -105 c62 -26 80 -114 30
-152 l-21 -16 33 -33 c27 -27 32 -39 32 -81 0 -54 -21 -86 -67 -104 -13 -5
-78 -9 -144 -9 l-119 0 0 205 0 205 110 0 c75 0 122 -5 146 -15z m333 -117
c31 -19 41 -61 41 -174 l0 -104 -34 0 c-19 0 -37 4 -41 9 -3 6 -17 4 -33 -5
-46 -24 -99 -18 -133 15 -63 64 -26 133 87 160 75 19 98 45 50 57 -35 8 -76
-3 -76 -21 0 -11 -11 -15 -41 -15 -37 0 -40 2 -33 23 16 54 67 79 146 72 25
-2 56 -10 67 -17z"/>
<path d="M200 1200 l0 -50 53 0 c60 0 97 20 97 54 0 36 -19 46 -87 46 l-63 0
0 -50z"/>
<path d="M200 1035 l0 -55 69 0 c76 0 101 13 101 54 0 40 -30 56 -103 56 l-67
0 0 -55z"/>
<path d="M1390 624 c0 -8 5 -12 10 -9 6 4 8 11 5 16 -9 14 -15 11 -15 -7z"/>
<path d="M880 465 l0 -45 63 0 c67 0 87 10 87 45 0 35 -20 45 -87 45 l-63 0 0
-45z"/>
<path d="M880 295 l0 -55 69 0 c76 0 101 13 101 55 0 42 -25 55 -101 55 l-69
0 0 -55z"/>
<path d="M1325 302 c-60 -10 -85 -24 -85 -47 0 -38 52 -48 90 -17 28 23 25 69
-5 64z"/>
<path d="M1435 1313 c-34 -7 -75 -25 -75 -33 0 -4 11 -12 25 -18 25 -12 25
-12 25 -156 0 -115 -3 -146 -15 -156 -32 -27 -17 -40 44 -40 68 0 81 10 51 40
-14 14 -20 33 -20 65 0 25 4 45 9 45 4 0 36 -34 70 -76 61 -73 63 -75 103 -72
48 3 61 24 25 37 -25 10 -96 87 -118 128 -10 19 -9 26 6 43 10 11 33 25 51 32
19 7 34 17 34 24 0 15 -52 25 -90 18 -30 -7 -41 -28 -17 -37 8 -3 2 -15 -17
-36 -51 -53 -58 -44 -56 72 2 143 6 129 -35 120z"/>
<path d="M1750 1295 c-22 -26 -8 -50 30 -50 25 0 36 5 38 18 5 23 -15 47 -38
47 -10 0 -23 -7 -30 -15z"/>
<path d="M2450 1200 c-8 -5 -42 -6 -75 -3 -77 7 -120 -12 -142 -64 -13 -33
-13 -41 1 -77 14 -35 14 -41 1 -56 -18 -20 -19 -52 -3 -68 9 -9 7 -16 -6 -31
-45 -49 17 -105 115 -104 95 1 156 47 150 113 -3 38 -19 45 -118 50 -89 5 -98
7 -98 25 0 17 6 19 45 17 89 -6 140 33 140 107 0 25 7 55 15 65 22 29 6 46
-25 26z m-70 -50 c36 -36 21 -100 -27 -115 -54 -15 -88 86 -41 119 30 21 44
20 68 -4z m55 -250 c20 -33 -29 -70 -92 -70 -52 0 -94 46 -66 73 10 11 151 8
158 -3z"/>
<path d="M852 1180 c-93 -57 -97 -197 -6 -256 37 -25 116 -24 151 2 57 43 58
79 2 45 -19 -12 -47 -21 -62 -21 -37 0 -87 49 -87 84 l0 26 95 0 c108 0 115 5
95 65 -23 69 -119 97 -188 55z m106 -26 c12 -8 22 -26 22 -40 0 -23 -3 -24
-65 -24 -74 0 -83 13 -40 55 28 29 51 31 83 9z"/>
<path d="M1132 1185 c-28 -12 -33 -19 -30 -42 4 -37 19 -38 56 -3 49 47 90 36
95 -25 2 -27 0 -28 -56 -29 -95 -4 -143 -59 -112 -132 19 -46 74 -63 130 -40
35 15 40 15 55 1 20 -18 62 -12 80 10 9 10 6 16 -9 25 -19 9 -21 20 -21 93 0
45 -3 92 -6 105 -13 48 -111 68 -182 37z m125 -151 c3 -8 1 -29 -4 -47 -7 -28
-14 -32 -45 -35 -30 -3 -40 1 -54 22 -15 24 -15 28 0 51 13 20 25 25 57 25 27
0 42 -5 46 -16z"/>
<path d="M1743 1185 c-38 -16 -42 -30 -13 -38 18 -5 20 -14 20 -101 0 -78 -3
-97 -16 -104 -31 -17 -4 -32 57 -32 44 0 59 4 59 14 0 8 -7 16 -15 20 -12 4
-15 29 -15 131 0 123 0 125 -22 125 -13 -1 -38 -7 -55 -15z"/>
<path d="M1918 1190 c-47 -14 -53 -21 -30 -39 18 -14 22 -28 24 -104 3 -77 1
-90 -16 -102 -29 -22 -9 -35 55 -35 46 0 59 3 59 15 0 9 -7 18 -15 21 -11 5
-15 23 -15 79 0 86 23 128 68 123 36 -4 52 -40 52 -120 0 -57 -3 -69 -21 -82
-33 -22 -14 -36 51 -36 65 0 84 14 51 36 -19 14 -21 25 -21 105 0 87 -1 92
-29 120 -36 35 -80 38 -122 8 l-29 -20 0 20 c0 23 -15 25 -62 11z"/>
<path d="M1740 568 c-50 -14 -58 -25 -32 -44 14 -10 22 -26 22 -44 l0 -29 -54
6 c-68 7 -108 -15 -136 -72 -34 -71 -20 -163 31 -199 30 -21 98 -21 127 0 22
15 24 15 36 -1 10 -14 21 -16 47 -11 19 3 41 11 49 16 13 9 13 11 0 20 -8 5
-19 11 -24 13 -4 1 -9 81 -10 177 0 106 -5 174 -11 176 -5 1 -26 -2 -45 -8z
m-45 -152 l35 -15 0 -73 c0 -77 -4 -89 -33 -105 -69 -37 -135 75 -96 161 9 19
35 40 57 45 1 1 18 -6 37 -13z"/>
</g>
</svg>
